<?xml version="1.0" standalone="no"?>
<svg xmlns:xlink="http://www.w3.org/1999/xlink" id="wave" style="transform:rotate(180deg); transition: 0.3s" viewBox="0 0 1440 460" version="1.1" xmlns="http://www.w3.org/2000/svg"><defs><linearGradient id="sw-gradient-0" x1="0" x2="0" y1="1" y2="0"><stop stop-color="rgba(224, 100, 123, 1)" offset="0%"/><stop stop-color="rgba(226, 100, 115, 1)" offset="100%"/></linearGradient></defs><path style="transform:translate(0, 0px); opacity:1" fill="url(#sw-gradient-0)" d="M0,414L34.3,368C68.6,322,137,230,206,168.7C274.3,107,343,77,411,61.3C480,46,549,46,617,99.7C685.7,153,754,261,823,260.7C891.4,261,960,153,1029,92C1097.1,31,1166,15,1234,46C1302.9,77,1371,153,1440,199.3C1508.6,245,1577,261,1646,237.7C1714.3,215,1783,153,1851,145.7C1920,138,1989,184,2057,237.7C2125.7,291,2194,353,2263,352.7C2331.4,353,2400,291,2469,230C2537.1,169,2606,107,2674,122.7C2742.9,138,2811,230,2880,268.3C2948.6,307,3017,291,3086,306.7C3154.3,322,3223,368,3291,329.7C3360,291,3429,169,3497,122.7C3565.7,77,3634,107,3703,130.3C3771.4,153,3840,169,3909,176.3C3977.1,184,4046,184,4114,199.3C4182.9,215,4251,245,4320,253C4388.6,261,4457,245,4526,253C4594.3,261,4663,291,4731,306.7C4800,322,4869,322,4903,322L4937.1,322L4937.1,460L4902.9,460C4868.6,460,4800,460,4731,460C4662.9,460,4594,460,4526,460C4457.1,460,4389,460,4320,460C4251.4,460,4183,460,4114,460C4045.7,460,3977,460,3909,460C3840,460,3771,460,3703,460C3634.3,460,3566,460,3497,460C3428.6,460,3360,460,3291,460C3222.9,460,3154,460,3086,460C3017.1,460,2949,460,2880,460C2811.4,460,2743,460,2674,460C2605.7,460,2537,460,2469,460C2400,460,2331,460,2263,460C2194.3,460,2126,460,2057,460C1988.6,460,1920,460,1851,460C1782.9,460,1714,460,1646,460C1577.1,460,1509,460,1440,460C1371.4,460,1303,460,1234,460C1165.7,460,1097,460,1029,460C960,460,891,460,823,460C754.3,460,686,460,617,460C548.6,460,480,460,411,460C342.9,460,274,460,206,460C137.1,460,69,460,34,460L0,460Z"/><defs><linearGradient id="sw-gradient-1" x1="0" x2="0" y1="1" y2="0"><stop stop-color="rgba(228, 100, 105, 1)" offset="0%"/><stop stop-color="rgba(231, 100, 92, 1)" offset="100%"/></linearGradient></defs><path style="transform:translate(0, 50px); opacity:0.9" fill="url(#sw-gradient-1)" d="M0,92L34.3,76.7C68.6,61,137,31,206,61.3C274.3,92,343,184,411,237.7C480,291,549,307,617,276C685.7,245,754,169,823,122.7C891.4,77,960,61,1029,69C1097.1,77,1166,107,1234,115C1302.9,123,1371,107,1440,92C1508.6,77,1577,61,1646,92C1714.3,123,1783,199,1851,191.7C1920,184,1989,92,2057,107.3C2125.7,123,2194,245,2263,306.7C2331.4,368,2400,368,2469,314.3C2537.1,261,2606,153,2674,99.7C2742.9,46,2811,46,2880,76.7C2948.6,107,3017,169,3086,207C3154.3,245,3223,261,3291,276C3360,291,3429,307,3497,291.3C3565.7,276,3634,230,3703,207C3771.4,184,3840,184,3909,199.3C3977.1,215,4046,245,4114,237.7C4182.9,230,4251,184,4320,184C4388.6,184,4457,230,4526,268.3C4594.3,307,4663,337,4731,314.3C4800,291,4869,215,4903,176.3L4937.1,138L4937.1,460L4902.9,460C4868.6,460,4800,460,4731,460C4662.9,460,4594,460,4526,460C4457.1,460,4389,460,4320,460C4251.4,460,4183,460,4114,460C4045.7,460,3977,460,3909,460C3840,460,3771,460,3703,460C3634.3,460,3566,460,3497,460C3428.6,460,3360,460,3291,460C3222.9,460,3154,460,3086,460C3017.1,460,2949,460,2880,460C2811.4,460,2743,460,2674,460C2605.7,460,2537,460,2469,460C2400,460,2331,460,2263,460C2194.3,460,2126,460,2057,460C1988.6,460,1920,460,1851,460C1782.9,460,1714,460,1646,460C1577.1,460,1509,460,1440,460C1371.4,460,1303,460,1234,460C1165.7,460,1097,460,1029,460C960,460,891,460,823,460C754.3,460,686,460,617,460C548.6,460,480,460,411,460C342.9,460,274,460,206,460C137.1,460,69,460,34,460L0,460Z"/></svg>